<?xml version="1.0" encoding="iso-8859-1"?>
<!-- Uploaded to: SVG Repo, www.svgrepo.com, Generator: SVG Repo Mixer Tools -->
<svg height="800px" width="800px" version="1.1" id="Layer_1" xmlns="http://www.w3.org/2000/svg" xmlns:xlink="http://www.w3.org/1999/xlink" 
	 viewBox="0 0 512.001 512.001" xml:space="preserve">
<path style="fill:#CAEEC5;" d="M95.187,223.505L78.124,28.195h183.937l-10.82,195.31H95.187z"/>
<path style="fill:#FF7B00;" d="M257.947,102.468l-6.706,121.037H95.187L83.689,91.893c21.01-16.293,62.145-14.101,86.782,0.355
	c8.719,5.119,19.624,8.599,30.958,10.22h4.23C205.658,102.468,257.947,102.468,257.947,102.468z"/>
<path style="fill:#CAEEC5;" d="M361.52,189.203v58.794c0,97.013-79.37,176.388-176.377,176.388c0,0-0.002,0-0.003,0
	s-0.002,0-0.003,0C88.131,424.386,8.761,345.01,8.761,247.997v-58.794H185.14H361.52z"/>
<path style="fill:#CF8F3D;" d="M361.31,256.515c-4.482,93.097-82.014,167.871-176.167,167.871c0,0-0.002,0-0.003,0s-0.002,0-0.003,0
	c-94.152,0-171.683-74.773-176.165-167.871H361.31L361.31,256.515z"/>
<path style="fill:#981700;" d="M503.25,255.972h-39.498v-14.268h-77.301h-76.774v105.638c0,42.374,34.666,77.042,77.036,77.042
	c42.376,0,77.039-34.67,77.039-77.042v-5.494h39.498c4.833,0,8.751-3.941,8.751-8.803v-68.271
	C512,259.914,508.083,255.972,503.25,255.972z M494.498,324.243h-30.747v-50.665h30.747V324.243z"/>
<path style="fill:#C13421;" d="M309.677,347.344V241.705h5.572h71.202h6.099v105.638c0,29.547-16.864,55.332-41.437,68.245
	C326.542,402.676,309.677,376.891,309.677,347.344z"/>
<path style="fill:#5B7F81;" d="M190.805,333.418c8.082,14.005,3.241,32.076-10.759,40.158c-14.01,8.087-32.076,3.246-40.161-10.757
	l-12.199-21.128c-6.573-11.394-4.596-25.48,3.913-34.69c-0.264-0.335-0.511-0.69-0.73-1.072l15.159-8.799
	c0.227,0.395,0.408,0.804,0.568,1.217c12.234-2.772,25.427,2.548,32.007,13.948L190.805,333.418z"/>
<path d="M79.816,302.156c0,4.861-3.917,8.803-8.751,8.803H69.38c-4.833,0-8.751-3.941-8.751-8.803s3.917-8.803,8.751-8.803h1.685
	C75.899,293.353,79.816,297.294,79.816,302.156z M242.695,287.324c0-4.861-3.917-8.803-8.75-8.803h-1.682
	c-4.833,0-8.751,3.941-8.751,8.803s3.917,8.803,8.751,8.803h1.682C238.778,296.127,242.695,292.186,242.695,287.324z
	 M244.47,346.665h-1.685c-4.833,0-8.751,3.941-8.751,8.803c0,4.861,3.917,8.803,8.751,8.803h1.685c4.833,0,8.751-3.941,8.751-8.803
	C253.22,350.606,249.303,346.665,244.47,346.665z M512,264.202v69.295c0,4.838-3.923,8.761-8.761,8.761h-30.863v4.161
	c0,47.821-38.906,86.728-86.727,86.728c-33.637,0-62.84-19.263-77.218-47.324c-0.291,0.258-0.579,0.52-0.871,0.778l-0.433,0.384
	c-0.234,0.21-0.47,0.421-0.707,0.628c-0.614,0.534-1.24,1.063-1.867,1.592l-0.648,0.55c-0.274,0.232-0.546,0.465-0.822,0.694
	c-0.585,0.485-1.167,0.955-1.75,1.425l-0.724,0.585c-0.314,0.254-0.628,0.508-0.944,0.759c-0.577,0.457-1.161,0.906-1.746,1.356
	l-0.655,0.505c-0.357,0.275-0.713,0.55-1.072,0.821c-0.58,0.438-1.163,0.864-1.745,1.29l-0.646,0.474
	c-0.384,0.283-0.768,0.564-1.155,0.842c-0.582,0.417-1.17,0.828-1.757,1.238l-0.513,0.358c-0.445,0.31-0.888,0.621-1.336,0.927
	c-0.611,0.417-1.234,0.831-1.856,1.244l-0.335,0.223c-0.488,0.324-0.977,0.648-1.469,0.968c-0.645,0.417-1.289,0.825-1.933,1.231
	l-0.196,0.124c-0.532,0.336-1.066,0.671-1.602,1.001c-0.659,0.405-1.325,0.805-1.991,1.202c-0.594,0.355-1.19,0.712-1.793,1.062
	c-0.664,0.387-1.33,0.766-1.996,1.143c-0.615,0.348-1.231,0.695-1.85,1.037c-0.661,0.365-1.33,0.725-1.999,1.084
	c-0.635,0.34-1.266,0.676-1.9,1.005c-0.666,0.347-1.337,0.689-2.01,1.028c-0.646,0.326-1.292,0.649-1.941,0.968
	c-0.67,0.329-1.345,0.654-2.022,0.976c-0.663,0.314-1.323,0.625-1.986,0.931c-0.681,0.314-1.358,0.621-2.036,0.923
	c-0.67,0.299-1.345,0.596-2.022,0.888c-0.682,0.295-1.365,0.585-2.049,0.872c-0.684,0.286-1.372,0.568-2.06,0.845
	c-0.682,0.276-1.37,0.55-2.059,0.818c-0.7,0.273-1.399,0.539-2.099,0.802c-0.687,0.258-1.377,0.515-2.069,0.766
	c-0.711,0.257-1.426,0.509-2.143,0.759c-0.687,0.239-1.377,0.477-2.07,0.71c-0.727,0.243-1.454,0.479-2.182,0.712
	c-0.691,0.222-1.385,0.445-2.082,0.659c-0.737,0.227-1.474,0.445-2.211,0.661s-1.416,0.416-2.099,0.609
	c-0.741,0.208-1.488,0.41-2.235,0.609l-0.231,0.062c-0.626,0.168-1.253,0.335-1.882,0.495c-0.721,0.184-1.45,0.36-2.179,0.537
	l-0.408,0.099c-0.599,0.145-1.197,0.289-1.798,0.427c-0.681,0.156-1.365,0.302-2.047,0.45l-0.675,0.146
	c-0.568,0.123-1.136,0.245-1.707,0.361c-0.67,0.136-1.34,0.263-2.01,0.39l-0.82,0.156c-0.545,0.104-1.092,0.208-1.639,0.306
	c-0.671,0.118-1.345,0.229-2.018,0.338l-0.92,0.151c-0.521,0.087-1.042,0.172-1.564,0.251c-0.678,0.103-1.361,0.197-2.045,0.29
	l-1.006,0.139c-0.496,0.07-0.991,0.139-1.489,0.202c-0.669,0.084-1.343,0.16-2.016,0.234l-1.104,0.125
	c-0.484,0.056-0.967,0.112-1.453,0.16c-0.69,0.07-1.384,0.129-2.078,0.188l-1.167,0.103c-0.451,0.04-0.902,0.081-1.355,0.115
	c-0.761,0.058-1.524,0.104-2.288,0.149l-1.116,0.07c-0.408,0.027-0.818,0.054-1.228,0.074c-0.929,0.047-1.86,0.078-2.79,0.11
	l-0.855,0.032c-0.341,0.014-0.682,0.027-1.025,0.036c-1.555,0.039-3.118,0.06-4.685,0.06h-0.005c-1.567,0-3.13-0.021-4.689-0.06
	c-0.338-0.009-0.68-0.022-1.022-0.036l-0.854-0.032c-0.931-0.031-1.862-0.062-2.788-0.11c-0.413-0.021-0.821-0.047-1.231-0.074
	l-1.115-0.069c-0.763-0.045-1.527-0.091-2.287-0.149c-0.454-0.034-0.905-0.076-1.356-0.116l-1.169-0.103
	c-0.693-0.059-1.386-0.119-2.078-0.188c-0.485-0.049-0.969-0.104-1.452-0.16l-1.1-0.124c-0.675-0.074-1.349-0.15-2.021-0.235
	c-0.498-0.062-0.995-0.133-1.493-0.203l-1.017-0.141c-0.678-0.093-1.357-0.186-2.032-0.289c-0.521-0.079-1.042-0.164-1.562-0.251
	l-0.919-0.151c-0.674-0.11-1.347-0.22-2.018-0.338c-0.551-0.097-1.1-0.201-1.648-0.307l-0.821-0.155
	c-0.667-0.126-1.334-0.252-1.998-0.388c-0.564-0.114-1.125-0.235-1.685-0.356l-0.657-0.141c-0.698-0.15-1.395-0.3-2.091-0.459
	c-0.6-0.138-1.199-0.283-1.798-0.427l-0.414-0.1c-0.727-0.175-1.454-0.35-2.177-0.536c-0.633-0.161-1.263-0.33-1.894-0.498
	l-0.207-0.056c-0.751-0.202-1.501-0.402-2.248-0.612c-0.691-0.195-1.383-0.398-2.074-0.601c-0.761-0.224-1.499-0.442-2.233-0.668
	c-0.697-0.215-1.392-0.437-2.085-0.66c-0.726-0.233-1.451-0.468-2.173-0.71c-0.7-0.234-1.39-0.473-2.079-0.713
	c-0.715-0.249-1.43-0.5-2.142-0.759c-0.69-0.25-1.379-0.506-2.065-0.764c-0.702-0.264-1.402-0.53-2.099-0.802
	c-0.69-0.269-1.376-0.543-2.059-0.819c-0.692-0.279-1.379-0.561-2.063-0.847c-0.682-0.285-1.363-0.575-2.042-0.868
	c-0.682-0.296-1.358-0.591-2.033-0.894c-0.677-0.302-1.354-0.609-2.028-0.92c-0.663-0.306-1.325-0.617-1.987-0.931
	c-0.676-0.321-1.349-0.645-2.019-0.975c-0.649-0.319-1.294-0.642-1.94-0.967c-0.678-0.343-1.348-0.684-2.016-1.032
	c-0.635-0.331-1.265-0.666-1.895-1.003c-0.672-0.36-1.34-0.72-2.003-1.085c-0.618-0.341-1.235-0.689-1.852-1.038
	c-0.666-0.378-1.328-0.755-1.988-1.139c-0.607-0.354-1.205-0.711-1.803-1.068c-0.665-0.399-1.33-0.796-1.988-1.201
	c-0.554-0.341-1.106-0.689-1.658-1.037l4.573-7.474l-4.672,7.412c-0.659-0.415-1.317-0.831-1.97-1.255
	c-0.496-0.321-0.991-0.651-1.486-0.979l-0.199-0.133c-0.711-0.472-1.346-0.894-1.977-1.323c-0.43-0.294-0.856-0.591-1.281-0.888
	l-0.532-0.372c-0.599-0.418-1.198-0.837-1.792-1.262c-0.396-0.285-0.79-0.573-1.183-0.862l-0.6-0.44
	c-0.589-0.432-1.177-0.863-1.76-1.302c-0.366-0.275-0.726-0.554-1.087-0.832l-0.649-0.5c-0.583-0.448-1.164-0.896-1.74-1.351
	c-0.321-0.254-0.635-0.509-0.948-0.763l-0.721-0.582c-0.584-0.47-1.166-0.941-1.742-1.419c-0.278-0.23-0.553-0.464-0.828-0.699
	l-0.689-0.585c-0.612-0.517-1.225-1.035-1.83-1.562c-0.237-0.207-0.469-0.414-0.701-0.621l-0.518-0.46
	c-0.688-0.608-1.376-1.216-2.053-1.834l-0.782-0.727c-0.815-0.752-1.627-1.505-2.428-2.27c-0.034-0.032-0.137-0.133-0.17-0.165
	c-4.97-4.761-9.772-9.909-14.24-15.265l-0.321-0.38c-0.748-0.901-1.48-1.811-2.209-2.725l-0.548-0.68
	c-0.681-0.862-1.35-1.736-2.018-2.611l-0.655-0.854c-0.637-0.845-1.263-1.703-1.888-2.563l-0.706-0.967
	c-0.6-0.837-1.196-1.693-1.789-2.551l-0.71-1.022c-0.582-0.853-1.148-1.707-1.711-2.564l-0.722-1.094
	c-0.55-0.848-1.09-1.705-1.626-2.565l-0.711-1.137c-0.527-0.855-1.043-1.717-1.554-2.581l-0.704-1.187
	c-0.502-0.862-0.994-1.73-1.484-2.601l-0.683-1.219c-0.48-0.868-0.952-1.748-1.419-2.629l-0.659-1.246
	c-0.457-0.876-0.907-1.763-1.353-2.652l-0.637-1.278c-0.435-0.886-0.867-1.786-1.292-2.689l-0.595-1.27
	c-0.424-0.916-0.833-1.827-1.238-2.741c-0.189-0.427-0.38-0.86-0.568-1.293c-0.401-0.925-0.792-1.849-1.175-2.776
	c-0.179-0.43-0.357-0.863-0.532-1.298c-0.378-0.932-0.75-1.872-1.114-2.815l-0.498-1.305c-0.358-0.948-0.711-1.902-1.054-2.861
	l-0.46-1.299c-0.338-0.967-0.671-1.937-0.993-2.911l-0.425-1.302c-0.315-0.976-0.626-1.96-0.929-2.949l-0.387-1.292
	c-0.297-1.001-0.588-2.003-0.867-3.009l-0.347-1.273c-0.276-1.02-0.545-2.04-0.804-3.065l-0.306-1.242
	c-0.256-1.051-0.507-2.098-0.745-3.15l-0.262-1.194c-0.234-1.071-0.464-2.147-0.681-3.227l-0.223-1.156
	c-0.211-1.091-0.418-2.191-0.612-3.299l-0.184-1.097c-0.189-1.124-0.375-2.257-0.545-3.395l-0.142-1.01
	c-0.168-1.167-0.331-2.343-0.476-3.523l-0.104-0.869c-0.147-1.233-0.286-2.461-0.407-3.694l-0.064-0.698
	c-0.123-1.292-0.237-2.592-0.332-3.896l-0.021-0.319c-0.001-0.01-0.007-0.105-0.008-0.115c-0.099-1.392-0.185-2.786-0.253-4.187
	c-0.146-3.051-0.22-6.06-0.22-8.943v-58.794c0-4.838,3.923-8.761,8.761-8.761h50.233L3.929,84.451
	C1.522,80.255,2.972,74.9,7.17,72.492c4.197-2.407,9.551-0.957,11.959,3.241l60.066,104.709h3.436L69.397,28.957
	c-0.214-2.447,0.61-4.871,2.269-6.682c1.66-1.811,4.003-2.842,6.459-2.842h183.936c2.408,0,4.709,0.991,6.364,2.74
	c1.655,1.749,2.517,4.102,2.384,6.506l-8.408,151.763h99.119c4.838,0,8.761,3.923,8.761,8.761v41.549h93.333
	c4.838,0,8.761,3.923,8.761,8.761v15.926h30.864C508.078,255.441,512,259.363,512,264.202z M87.685,36.956l12.535,143.486h144.632
	l7.949-143.486C252.802,36.956,87.685,36.956,87.685,36.956z M352.759,230.753v-32.788H89.247l51.945,90.551
	c3.693-1.127,7.552-1.715,11.421-1.715c14.035,0,27.087,7.51,34.064,19.597l12.648,21.894c10.816,18.743,4.374,42.787-14.36,53.602
	c-5.935,3.426-12.691,5.235-19.54,5.235c-14.033,0-27.086-7.507-34.064-19.592l-12.647-21.903
	c-9.31-16.138-5.815-36.202,7.293-48.371l-56.962-99.297H17.523v50.032c0,2.605,0.068,5.329,0.2,8.097
	c0.061,1.268,0.14,2.532,0.23,3.794l0.02,0.303c0.092,1.269,0.196,2.443,0.307,3.615l0.056,0.624
	c0.111,1.125,0.238,2.236,0.369,3.347l0.091,0.792c0.131,1.064,0.279,2.127,0.431,3.187l0.128,0.917
	c0.152,1.017,0.32,2.042,0.493,3.065l0.162,0.979c0.177,1.014,0.365,2.01,0.557,3.004l0.2,1.038
	c0.196,0.976,0.403,1.947,0.617,2.918l0.235,1.075c0.216,0.957,0.442,1.903,0.674,2.849l0.275,1.121
	c0.234,0.93,0.48,1.854,0.728,2.776l0.313,1.148c0.255,0.917,0.518,1.822,0.786,2.726l0.349,1.17c0.272,0.89,0.553,1.781,0.84,2.669
	l0.383,1.176c0.292,0.88,0.594,1.759,0.899,2.634l0.416,1.178c0.309,0.86,0.628,1.724,0.953,2.586l0.45,1.178
	c0.329,0.851,0.664,1.7,1.008,2.545l0.482,1.176c0.349,0.842,0.703,1.679,1.063,2.511l0.514,1.167
	c0.368,0.832,0.738,1.655,1.117,2.475l0.543,1.156c0.387,0.82,0.775,1.634,1.173,2.441l0.573,1.151
	c0.402,0.801,0.809,1.606,1.227,2.405l0.595,1.123c0.424,0.798,0.85,1.593,1.286,2.383l0.62,1.106
	c0.441,0.785,0.887,1.573,1.343,2.353l0.637,1.075c0.463,0.782,0.93,1.563,1.406,2.336l0.643,1.027
	c0.491,0.784,0.979,1.562,1.477,2.331l0.652,0.988c0.513,0.779,1.025,1.553,1.547,2.32l0.644,0.927
	c0.539,0.78,1.075,1.553,1.624,2.317l0.638,0.874c0.564,0.775,1.132,1.555,1.713,2.325l0.589,0.768
	c0.606,0.793,1.212,1.587,1.832,2.371l0.496,0.614c0.659,0.825,1.322,1.65,1.998,2.465l0.303,0.358
	c4.041,4.847,8.397,9.514,12.934,13.861c0.032,0.031,0.123,0.119,0.154,0.15c0.693,0.663,1.429,1.343,2.166,2.023l0.707,0.659
	c0.611,0.557,1.229,1.103,1.846,1.649l1.125,0.999c0.536,0.467,1.08,0.925,1.625,1.385l0.752,0.637
	c0.217,0.185,0.434,0.37,0.654,0.552c0.511,0.425,1.029,0.841,1.546,1.258l0.767,0.619c0.26,0.21,0.519,0.421,0.781,0.629
	c0.508,0.402,1.028,0.801,1.546,1.2l0.681,0.525c0.308,0.238,0.614,0.475,0.924,0.71c0.518,0.39,1.041,0.773,1.566,1.158l0.626,0.46
	c0.337,0.249,0.675,0.497,1.015,0.741c0.531,0.381,1.069,0.756,1.604,1.13l0.544,0.38c0.371,0.26,0.743,0.519,1.117,0.775
	c0.566,0.387,1.139,0.767,1.712,1.147l0.29,0.193c0.438,0.291,0.875,0.582,1.317,0.868c0.592,0.384,1.187,0.759,1.783,1.135
	c0,0,0.101,0.064,0.102,0.064c0.497,0.313,0.994,0.628,1.495,0.935c0.597,0.368,1.197,0.727,1.798,1.085
	c0.542,0.324,1.085,0.649,1.632,0.968c0.595,0.346,1.198,0.689,1.802,1.032c0.555,0.314,1.114,0.63,1.674,0.939
	c0.605,0.333,1.209,0.659,1.815,0.983c0.568,0.304,1.141,0.609,1.716,0.909c0.606,0.315,1.213,0.625,1.823,0.933
	c0.58,0.292,1.166,0.586,1.756,0.875c0.607,0.298,1.216,0.591,1.827,0.882c0.599,0.285,1.199,0.567,1.803,0.845
	c0.612,0.283,1.222,0.559,1.834,0.832c0.613,0.274,1.225,0.543,1.841,0.808c0.61,0.264,1.227,0.526,1.844,0.784
	c0.622,0.261,1.245,0.515,1.869,0.768c0.618,0.25,1.241,0.497,1.865,0.741c0.628,0.245,1.262,0.486,1.898,0.725
	c0.621,0.233,1.243,0.465,1.868,0.691c0.644,0.233,1.291,0.461,1.938,0.686c0.625,0.218,1.252,0.435,1.879,0.645
	c0.649,0.217,1.309,0.43,1.969,0.642c0.626,0.202,1.251,0.402,1.88,0.595c0.667,0.206,1.336,0.403,2.005,0.6
	c0.642,0.188,1.265,0.372,1.891,0.549c0.678,0.191,1.357,0.372,2.035,0.554l0.208,0.056c0.563,0.151,1.125,0.301,1.691,0.446
	c0.651,0.165,1.303,0.323,1.956,0.481l0.425,0.103c0.529,0.128,1.058,0.256,1.589,0.378c0.619,0.142,1.242,0.275,1.864,0.41
	l0.674,0.146c0.49,0.106,0.978,0.211,1.47,0.311c0.586,0.119,1.175,0.23,1.764,0.342l0.853,0.162
	c0.472,0.09,0.944,0.181,1.418,0.264c0.592,0.105,1.187,0.201,1.783,0.299l0.958,0.158c0.444,0.073,0.888,0.147,1.333,0.215
	c0.594,0.09,1.188,0.172,1.783,0.253l1.072,0.149c0.416,0.058,0.833,0.117,1.252,0.17c0.587,0.074,1.175,0.139,1.763,0.205
	l1.174,0.133c0.4,0.046,0.799,0.093,1.201,0.134c0.601,0.06,1.206,0.112,1.81,0.163l1.256,0.111
	c0.366,0.033,0.732,0.067,1.098,0.094c0.665,0.05,1.335,0.09,2.004,0.129l1.23,0.077c0.32,0.021,0.64,0.043,0.96,0.059
	c0.825,0.042,1.655,0.069,2.485,0.096l0.999,0.037c0.244,0.01,0.488,0.021,0.734,0.026c1.416,0.036,2.831,0.055,4.251,0.055h0.005
	c1.419,0,2.835-0.019,4.247-0.055c0.25-0.007,0.494-0.016,0.737-0.026l1.001-0.037c0.83-0.027,1.66-0.055,2.486-0.096
	c0.319-0.016,0.637-0.037,0.957-0.059l1.231-0.077c0.669-0.039,1.339-0.08,2.005-0.13c0.367-0.027,0.732-0.061,1.097-0.094
	l1.256-0.111c0.605-0.051,1.209-0.103,1.81-0.163c0.402-0.041,0.801-0.088,1.2-0.134l1.179-0.134
	c0.587-0.066,1.174-0.13,1.758-0.204c0.417-0.053,0.833-0.112,1.248-0.17l1.061-0.147c0.6-0.082,1.199-0.164,1.796-0.255
	c0.448-0.068,0.89-0.141,1.333-0.215l0.96-0.158c0.596-0.097,1.19-0.194,1.783-0.299c0.471-0.083,0.941-0.173,1.411-0.263
	l0.85-0.161c0.594-0.113,1.186-0.225,1.777-0.344c0.496-0.101,0.994-0.209,1.492-0.317l0.691-0.149
	c0.609-0.131,1.217-0.262,1.823-0.401c0.529-0.122,1.058-0.25,1.587-0.377l0.314-0.076c0.001,0,0.106-0.025,0.107-0.026
	c0.653-0.158,1.305-0.314,1.956-0.481c0.566-0.145,1.125-0.294,1.683-0.444l0.225-0.06c0.679-0.182,1.355-0.362,2.027-0.552
	c0.618-0.174,1.23-0.354,1.842-0.534c0.722-0.212,1.391-0.411,2.058-0.616c0.628-0.193,1.253-0.393,1.879-0.595
	c0.661-0.212,1.32-0.425,1.976-0.644c0.623-0.209,1.248-0.425,1.873-0.643c0.649-0.227,1.296-0.453,1.938-0.687
	c0.626-0.227,1.247-0.458,1.867-0.691c0.637-0.24,1.271-0.481,1.903-0.727c0.621-0.242,1.242-0.49,1.862-0.74
	c0.625-0.253,1.247-0.507,1.867-0.766c0.619-0.258,1.235-0.521,1.851-0.787c0.612-0.264,1.223-0.532,1.832-0.805
	c0.618-0.276,1.232-0.554,1.843-0.836c0.596-0.275,1.196-0.557,1.795-0.842c0.609-0.29,1.22-0.584,1.828-0.882
	c0.589-0.289,1.174-0.582,1.758-0.876c0.608-0.308,1.217-0.618,1.823-0.933c0.576-0.299,1.147-0.603,1.716-0.909
	c0.602-0.323,1.209-0.649,1.811-0.981c0.564-0.311,1.119-0.625,1.676-0.94c0.603-0.342,1.207-0.684,1.807-1.035
	c0.542-0.316,1.082-0.64,1.622-0.963c0.606-0.362,1.207-0.722,1.804-1.09c0.482-0.297,0.959-0.598,1.436-0.898l0.14-0.088
	c0.641-0.404,1.225-0.773,1.806-1.149c0.434-0.28,0.867-0.571,1.303-0.859l0.341-0.227c0.557-0.37,1.116-0.74,1.669-1.118
	c0.396-0.271,0.785-0.542,1.174-0.814l0.523-0.366c0.525-0.366,1.05-0.733,1.57-1.106c0.334-0.239,0.663-0.481,0.991-0.723
	l0.67-0.492c0.517-0.379,1.035-0.758,1.546-1.143c0.302-0.228,0.608-0.464,0.912-0.7l0.688-0.529c0.52-0.4,1.039-0.799,1.554-1.206
	c0.262-0.207,0.519-0.416,0.776-0.625l0.763-0.617c0.52-0.419,1.04-0.839,1.554-1.265l1.363-1.154
	c0.557-0.47,1.114-0.94,1.664-1.418l1.047-0.931c0.644-0.569,1.288-1.137,1.923-1.716l0.703-0.655
	c0.74-0.683,1.478-1.366,2.203-2.059l0.143-0.14c0.252-0.242,0.496-0.499,0.747-0.744c-1.799-6.948-2.759-14.23-2.759-21.733
	V239.514c0-4.838,3.923-8.761,8.761-8.761L352.759,230.753L352.759,230.753z M133.891,336.875l12.645,21.9
	c3.858,6.682,11.095,10.832,18.889,10.832c3.778,0,7.506-0.999,10.78-2.888c10.366-5.984,13.93-19.292,7.944-29.664l-12.647-21.896
	c-3.858-6.685-11.096-10.837-18.89-10.837c-3.514,0-6.872,0.825-9.979,2.45c-0.278,0.146-0.553,0.295-0.826,0.45
	C131.473,313.192,127.906,326.502,133.891,336.875z M454.853,248.275H316.447v98.144c0,38.16,31.045,69.205,69.202,69.205
	c38.16,0,69.204-31.046,69.204-69.205V248.275z M494.477,272.964h-22.101v51.773h22.103v-51.773H494.477z M425.249,184.258
	c-3.165,3.66-2.764,9.193,0.896,12.358c1.657,1.432,3.696,2.134,5.727,2.134c2.455,0,4.899-1.027,6.631-3.03
	c17.99-20.803,14.801-58.398,0.536-80.459c-11.315-17.501-11.576-46.117-0.536-58.884c3.165-3.66,2.763-9.193-0.896-12.358
	c-3.66-3.165-9.193-2.765-12.358,0.896c-17.724,20.495-14.712,58.536-0.925,79.86C435.84,142.583,436.29,171.491,425.249,184.258z
	 M381.303,184.258c-3.165,3.66-2.763,9.193,0.896,12.358c1.657,1.432,3.696,2.134,5.727,2.134c2.455,0,4.899-1.027,6.631-3.03
	c17.99-20.803,14.801-58.398,0.534-80.459c-11.315-17.501-11.575-46.117-0.534-58.884c3.165-3.66,2.763-9.193-0.896-12.358
	c-3.66-3.165-9.193-2.765-12.358,0.896c-17.724,20.495-14.712,58.536-0.925,79.86C391.894,142.583,392.344,171.491,381.303,184.258z
	 M503.239,475.045H16.987c-4.838,0-8.761,3.923-8.761,8.761c0,4.838,3.923,8.761,8.761,8.761h486.252
	c4.838,0,8.761-3.923,8.761-8.761C512,478.967,508.078,475.045,503.239,475.045z"/>
</svg>